<?xml version="1.0" encoding="UTF-8"?>
<svg xmlns="http://www.w3.org/2000/svg" xmlns:xlink="http://www.w3.org/1999/xlink" width="649.9pt" height="249.1pt" viewBox="0 0 649.9 249.1" version="1.1">
<defs>
<clipPath id="clip1">
  <path d="M 616 212 L 649.898438 212 L 649.898438 249 L 616 249 Z M 616 212 "/>
</clipPath>
</defs>
<g id="surface1">
<path style=" stroke:none;fill-rule:evenodd;fill:rgb(80.076599%,80.076599%,80.859375%);fill-opacity:1;" d="M 550.78125 237.703125 C 550.78125 239.003906 550.609375 240.179688 550.253906 241.230469 C 549.886719 242.289063 549.394531 243.222656 548.769531 244.03125 C 548.136719 244.839844 547.382813 245.535156 546.507813 246.113281 C 545.640625 246.699219 544.667969 247.179688 543.617188 247.554688 C 542.570313 247.929688 541.441406 248.210938 540.25 248.382813 C 539.054688 248.566406 537.726563 248.652344 536.253906 248.652344 L 526.554688 248.652344 C 525.929688 248.652344 525.410156 248.472656 524.984375 248.105469 C 524.5625 247.738281 524.351563 247.140625 524.351563 246.3125 L 524.351563 214.488281 C 524.351563 213.660156 524.5625 213.0625 524.984375 212.695313 C 525.410156 212.332031 525.929688 212.148438 526.554688 212.148438 L 535.722656 212.148438 C 537.957031 212.148438 539.851563 212.339844 541.402344 212.71875 C 542.953125 213.09375 544.261719 213.660156 545.324219 214.421875 C 546.390625 215.179688 547.199219 216.144531 547.769531 217.308594 C 548.328125 218.476563 548.617188 219.851563 548.617188 221.429688 C 548.617188 222.316406 548.5 223.144531 548.269531 223.925781 C 548.046875 224.703125 547.71875 225.417969 547.289063 226.054688 C 546.855469 226.699219 546.324219 227.257813 545.6875 227.746094 C 545.0625 228.238281 544.339844 228.632813 543.53125 228.933594 C 544.570313 229.125 545.523438 229.453125 546.402344 229.925781 C 547.269531 230.394531 548.039063 230.992188 548.683594 231.742188 C 549.328125 232.484375 549.847656 233.351563 550.222656 234.355469 C 550.601563 235.347656 550.78125 236.464844 550.78125 237.703125 Z M 541.191406 222.335938 C 541.191406 221.59375 541.078125 220.941406 540.855469 220.363281 C 540.632813 219.773438 540.285156 219.292969 539.832031 218.910156 C 539.390625 218.523438 538.824219 218.222656 538.128906 218.011719 C 537.445313 217.808594 536.53125 217.703125 535.386719 217.703125 L 531.628906 217.703125 L 531.628906 227.179688 L 535.78125 227.179688 C 536.847656 227.179688 537.707031 227.054688 538.339844 226.804688 C 538.984375 226.554688 539.515625 226.199219 539.941406 225.765625 C 540.363281 225.320313 540.671875 224.800781 540.882813 224.203125 C 541.085938 223.617188 541.191406 222.992188 541.191406 222.335938 Z M 543.078125 237.964844 C 543.078125 237.117188 542.945313 236.355469 542.65625 235.691406 C 542.375 235.019531 541.960938 234.460938 541.421875 234.007813 C 540.875 233.5625 540.179688 233.207031 539.332031 232.96875 C 538.484375 232.726563 537.386719 232.601563 536.03125 232.601563 L 531.628906 232.601563 L 531.628906 242.980469 L 536.992188 242.980469 C 538.023438 242.980469 538.890625 242.875 539.601563 242.65625 C 540.304688 242.441406 540.914063 242.125 541.433594 241.699219 C 541.953125 241.277344 542.355469 240.746094 542.644531 240.121094 C 542.933594 239.484375 543.078125 238.773438 543.078125 237.964844 Z M 543.078125 237.964844 "/>
<path style=" stroke:none;fill-rule:evenodd;fill:rgb(80.076599%,80.076599%,80.859375%);fill-opacity:1;" d="M 580.890625 245.746094 C 580.890625 246.296875 580.875 246.75 580.824219 247.113281 C 580.777344 247.480469 580.710938 247.777344 580.613281 248.007813 C 580.515625 248.230469 580.402344 248.394531 580.257813 248.5 C 580.121094 248.605469 579.957031 248.65625 579.792969 248.65625 L 561.457031 248.65625 C 560.832031 248.65625 560.3125 248.472656 559.890625 248.105469 C 559.464844 247.738281 559.253906 247.140625 559.253906 246.316406 L 559.253906 214.488281 C 559.253906 213.660156 559.464844 213.0625 559.890625 212.695313 C 560.3125 212.332031 560.832031 212.148438 561.457031 212.148438 L 579.679688 212.148438 C 579.851563 212.148438 579.996094 212.195313 580.132813 212.292969 C 580.265625 212.378906 580.371094 212.542969 580.46875 212.785156 C 580.566406 213.015625 580.632813 213.324219 580.679688 213.6875 C 580.730469 214.054688 580.757813 214.515625 580.757813 215.085938 C 580.757813 215.605469 580.730469 216.058594 580.679688 216.425781 C 580.632813 216.789063 580.566406 217.089844 580.46875 217.308594 C 580.371094 217.542969 580.265625 217.703125 580.132813 217.800781 C 579.996094 217.90625 579.851563 217.953125 579.679688 217.953125 L 566.648438 217.953125 L 566.648438 226.871094 L 577.675781 226.871094 C 577.847656 226.871094 578.003906 226.929688 578.148438 227.027344 C 578.28125 227.132813 578.398438 227.296875 578.492188 227.507813 C 578.589844 227.730469 578.660156 228.019531 578.707031 228.382813 C 578.753906 228.75 578.773438 229.191406 578.773438 229.722656 C 578.773438 230.269531 578.753906 230.722656 578.707031 231.082031 C 578.660156 231.4375 578.589844 231.726563 578.492188 231.9375 C 578.398438 232.160156 578.28125 232.3125 578.148438 232.398438 C 578.003906 232.496094 577.847656 232.542969 577.675781 232.542969 L 566.648438 232.542969 L 566.648438 242.839844 L 579.792969 242.839844 C 579.957031 242.839844 580.121094 242.894531 580.257813 243 C 580.402344 243.097656 580.515625 243.261719 580.613281 243.492188 C 580.710938 243.714844 580.777344 244.011719 580.824219 244.378906 C 580.875 244.746094 580.890625 245.207031 580.890625 245.746094 Z M 580.890625 245.746094 "/>
<path style=" stroke:none;fill-rule:evenodd;fill:rgb(80.076599%,80.076599%,80.859375%);fill-opacity:1;" d="M 616.261719 215.191406 C 616.261719 215.738281 616.230469 216.203125 616.183594 216.585938 C 616.132813 216.972656 616.066406 217.289063 615.972656 217.519531 C 615.875 217.753906 615.757813 217.933594 615.625 218.042969 C 615.480469 218.15625 615.324219 218.214844 615.152344 218.214844 L 606.015625 218.214844 L 606.015625 247.644531 C 606.015625 247.828125 605.957031 248 605.832031 248.144531 C 605.707031 248.296875 605.503906 248.421875 605.222656 248.511719 C 604.945313 248.605469 604.558594 248.683594 604.078125 248.742188 C 603.605469 248.800781 603.007813 248.828125 602.285156 248.828125 C 601.574219 248.828125 600.976563 248.800781 600.496094 248.742188 C 600.023438 248.683594 599.636719 248.605469 599.359375 248.511719 C 599.070313 248.421875 598.867188 248.296875 598.753906 248.144531 C 598.628906 248 598.570313 247.828125 598.570313 247.644531 L 598.570313 218.214844 L 589.421875 218.214844 C 589.238281 218.214844 589.074219 218.15625 588.949219 218.042969 C 588.8125 217.933594 588.699219 217.753906 588.601563 217.519531 C 588.515625 217.289063 588.4375 216.972656 588.390625 216.585938 C 588.351563 216.203125 588.324219 215.738281 588.324219 215.191406 C 588.324219 214.632813 588.351563 214.152344 588.390625 213.757813 C 588.4375 213.363281 588.515625 213.042969 588.601563 212.8125 C 588.699219 212.574219 588.8125 212.410156 588.949219 212.300781 C 589.074219 212.195313 589.238281 212.148438 589.421875 212.148438 L 615.152344 212.148438 C 615.324219 212.148438 615.480469 212.195313 615.625 212.300781 C 615.757813 212.410156 615.875 212.574219 615.972656 212.8125 C 616.066406 213.042969 616.132813 213.363281 616.183594 213.757813 C 616.230469 214.152344 616.261719 214.632813 616.261719 215.191406 Z M 616.261719 215.191406 "/>
<g clip-path="url(#clip1)" clip-rule="nonzero">
<path style=" stroke:none;fill-rule:evenodd;fill:rgb(80.076599%,80.076599%,80.859375%);fill-opacity:1;" d="M 649.527344 246.066406 C 649.746094 246.738281 649.890625 247.277344 649.949219 247.671875 C 649.996094 248.066406 649.929688 248.367188 649.71875 248.558594 C 649.515625 248.761719 649.148438 248.875 648.621094 248.925781 C 648.089844 248.972656 647.367188 249 646.445313 249 C 645.492188 249 644.738281 248.984375 644.199219 248.953125 C 643.671875 248.925781 643.257813 248.867188 642.976563 248.789063 C 642.699219 248.703125 642.496094 248.585938 642.378906 248.433594 C 642.273438 248.28125 642.175781 248.085938 642.101563 247.835938 L 639.644531 240.507813 L 625.933594 240.507813 L 623.621094 247.644531 C 623.542969 247.902344 623.449219 248.125 623.324219 248.308594 C 623.207031 248.480469 623.003906 248.625 622.734375 248.730469 C 622.464844 248.828125 622.070313 248.90625 621.582031 248.945313 C 621.078125 248.984375 620.425781 249 619.613281 249 C 618.75 249 618.074219 248.972656 617.585938 248.914063 C 617.09375 248.855469 616.753906 248.722656 616.574219 248.5 C 616.378906 248.289063 616.3125 247.980469 616.371094 247.585938 C 616.429688 247.191406 616.574219 246.660156 616.792969 246.007813 L 628.050781 213.621094 C 628.167969 213.304688 628.292969 213.042969 628.445313 212.839844 C 628.601563 212.648438 628.839844 212.496094 629.167969 212.390625 C 629.496094 212.292969 629.949219 212.226563 630.535156 212.195313 C 631.113281 212.167969 631.894531 212.148438 632.847656 212.148438 C 633.953125 212.148438 634.839844 212.167969 635.503906 212.195313 C 636.160156 212.226563 636.671875 212.292969 637.035156 212.390625 C 637.402344 212.496094 637.671875 212.648438 637.824219 212.859375 C 637.988281 213.0625 638.125 213.34375 638.238281 213.707031 Z M 632.761719 219.292969 L 632.730469 219.292969 L 627.570313 234.808594 L 637.921875 234.808594 Z M 632.761719 219.292969 "/>
</g>
<path style=" stroke:none;fill-rule:evenodd;fill:rgb(92.96875%,14.501953%,56.443787%);fill-opacity:1;" d="M 79.945313 34.203125 C 124.066406 34.203125 159.847656 69.980469 159.847656 114.105469 C 159.847656 158.230469 124.066406 194.011719 79.945313 194.011719 C 35.820313 194.011719 0.0390625 158.230469 0.0390625 114.105469 C 0.0390625 69.980469 35.820313 34.203125 79.945313 34.203125 Z M 79.945313 76.285156 C 100.828125 76.285156 117.765625 93.222656 117.765625 114.105469 C 117.765625 134.988281 100.828125 151.925781 79.945313 151.925781 C 59.058594 151.925781 42.125 134.988281 42.125 114.105469 C 42.125 93.222656 59.058594 76.285156 79.945313 76.285156 Z M 79.945313 76.285156 "/>
<path style=" stroke:none;fill-rule:evenodd;fill:rgb(92.96875%,14.501953%,56.443787%);fill-opacity:1;" d="M 177.519531 189.277344 L 221.011719 189.277344 L 221.011719 112.96875 C 221.074219 95.738281 228.890625 78.316406 247.863281 78.316406 L 247.863281 34.007813 C 197.5625 34.011719 177.519531 70.933594 177.519531 112.402344 Z M 177.519531 189.277344 "/>
<path style=" stroke:none;fill-rule:evenodd;fill:rgb(92.96875%,14.501953%,56.443787%);fill-opacity:1;" d="M 270.179688 -0.0742188 L 311.402344 -0.0742188 L 311.402344 88.683594 L 351.871094 37.417969 L 403.683594 37.417969 L 352.425781 102.355469 C 384.386719 108.984375 397.25 146.480469 397.253906 175.074219 L 397.253906 189.277344 L 356.21875 189.277344 C 356.222656 165.542969 350.925781 133.671875 311.402344 133.417969 L 311.402344 189.277344 L 270.179688 189.277344 Z M 270.179688 -0.0742188 "/>
<path style=" stroke:none;fill-rule:evenodd;fill:rgb(92.96875%,14.501953%,56.443787%);fill-opacity:1;" d="M 421.839844 37.417969 L 462.683594 37.417969 L 462.683594 117.324219 C 462.683594 138.59375 476.066406 150.558594 490.484375 150.460938 C 504.917969 150.363281 517.839844 138.71875 517.902344 116.945313 L 517.902344 37.417969 L 558.558594 37.417969 L 558.558594 116.945313 C 558.5625 160.8125 545.304688 192.785156 490.484375 192.875 C 430.347656 192.972656 421.839844 154.058594 421.839844 117.324219 Z M 421.839844 37.417969 "/>
<path style=" stroke:none;fill-rule:evenodd;fill:rgb(92.96875%,14.501953%,56.443787%);fill-opacity:1;" d="M 580.117188 -0.0742188 L 621.53125 -0.0742188 L 621.53125 38.175781 L 648.761719 38.175781 L 648.761719 80.589844 L 621.53125 80.589844 L 621.53125 111.644531 C 621.53125 134.492188 635.148438 150.710938 648.761719 150.648438 L 648.761719 191.925781 C 600.542969 191.863281 580.117188 153.699219 580.117188 120.730469 Z M 580.117188 -0.0742188 "/>
</g>
</svg>
